<mxfile host="app.diagrams.net" modified="2023-05-23T14:32:08.726Z" agent="Mozilla/5.0 (X11; Ubuntu; Linux x86_64; rv:109.0) Gecko/20100101 Firefox/112.0" etag="qvD0m28JoXOUc0vSY-pp" version="21.2.7" type="device">
  <diagram name="Page-1" id="XtJIvNGaWkcXaqnBxB8F">
    <mxGraphModel dx="2284" dy="735" grid="1" gridSize="10" guides="1" tooltips="1" connect="1" arrows="1" fold="1" page="1" pageScale="1" pageWidth="850" pageHeight="1100" math="0" shadow="0">
      <root>
        <mxCell id="0" />
        <mxCell id="1" parent="0" />
        <mxCell id="fKZNeTZ5uHSRxG5HBTgB-1" value="&lt;font style=&quot;font-size: 18px;&quot;&gt;C1: Context&lt;br&gt;&lt;/font&gt;" style="text;html=1;strokeColor=none;fillColor=none;align=center;verticalAlign=middle;whiteSpace=wrap;rounded=0;" vertex="1" parent="1">
          <mxGeometry x="161.25" y="320" width="100" height="30" as="geometry" />
        </mxCell>
        <mxCell id="fKZNeTZ5uHSRxG5HBTgB-5" value="&lt;div&gt;Uploads lecture slides and&lt;/div&gt;&lt;div&gt;asks questions using&lt;/div&gt;" style="edgeStyle=orthogonalEdgeStyle;rounded=0;orthogonalLoop=1;jettySize=auto;html=1;exitX=0.5;exitY=1;exitDx=0;exitDy=0;entryX=0.5;entryY=0;entryDx=0;entryDy=0;" edge="1" parent="1" source="fKZNeTZ5uHSRxG5HBTgB-2" target="fKZNeTZ5uHSRxG5HBTgB-4">
          <mxGeometry relative="1" as="geometry" />
        </mxCell>
        <mxCell id="fKZNeTZ5uHSRxG5HBTgB-2" value="&lt;div style=&quot;font-size: 18px;&quot;&gt;Student&lt;/div&gt;&lt;div style=&quot;&quot;&gt;[Person]&lt;br&gt;&lt;/div&gt;&lt;div&gt;A student that wants to understand lecture slides&lt;br&gt;&lt;/div&gt;" style="rounded=1;whiteSpace=wrap;html=1;" vertex="1" parent="1">
          <mxGeometry x="330" y="110" width="230" height="120" as="geometry" />
        </mxCell>
        <mxCell id="fKZNeTZ5uHSRxG5HBTgB-3" value="" style="ellipse;whiteSpace=wrap;html=1;aspect=fixed;" vertex="1" parent="1">
          <mxGeometry x="405" y="30" width="80" height="80" as="geometry" />
        </mxCell>
        <mxCell id="fKZNeTZ5uHSRxG5HBTgB-9" value="&lt;div&gt;Stores lecture slides and&lt;/div&gt;&lt;div&gt;processes related questions using&lt;/div&gt;" style="edgeStyle=orthogonalEdgeStyle;rounded=0;orthogonalLoop=1;jettySize=auto;html=1;exitX=0.5;exitY=1;exitDx=0;exitDy=0;entryX=0.5;entryY=0;entryDx=0;entryDy=0;" edge="1" parent="1" source="fKZNeTZ5uHSRxG5HBTgB-4" target="fKZNeTZ5uHSRxG5HBTgB-7">
          <mxGeometry relative="1" as="geometry" />
        </mxCell>
        <mxCell id="fKZNeTZ5uHSRxG5HBTgB-4" value="&lt;div&gt;&lt;font style=&quot;font-size: 18px;&quot;&gt;Chatbot Application&lt;/font&gt;&lt;/div&gt;&lt;div style=&quot;&quot;&gt;&lt;font style=&quot;font-size: 12px;&quot;&gt;[Software System]&lt;br&gt;&lt;/font&gt;&lt;/div&gt;&lt;div style=&quot;&quot;&gt;&lt;font style=&quot;font-size: 12px;&quot;&gt;Allows students to upload lecture slides and ask questions regarding uploaded slides&lt;br&gt;&lt;/font&gt;&lt;/div&gt;" style="rounded=0;whiteSpace=wrap;html=1;fillColor=#dae8fc;strokeColor=#6c8ebf;" vertex="1" parent="1">
          <mxGeometry x="338.75" y="300" width="212.5" height="100" as="geometry" />
        </mxCell>
        <mxCell id="fKZNeTZ5uHSRxG5HBTgB-6" value="&lt;div style=&quot;font-size: 18px;&quot;&gt;Vector Database&lt;br&gt;&lt;/div&gt;&lt;div&gt;[Software System]&lt;/div&gt;&lt;div&gt;Stores vector embeddings of uploaded slides and additional content, executes similarity searches&lt;br&gt;&lt;/div&gt;" style="rounded=0;whiteSpace=wrap;html=1;fillColor=#f5f5f5;fontColor=#333333;strokeColor=#666666;" vertex="1" parent="1">
          <mxGeometry x="-50.00000000000001" y="470" width="211.25" height="100" as="geometry" />
        </mxCell>
        <mxCell id="fKZNeTZ5uHSRxG5HBTgB-11" value="&lt;div&gt;Stores vector embeddings&lt;/div&gt;&lt;div&gt;and does similarity search&lt;/div&gt;&lt;div&gt;using&lt;br&gt;&lt;/div&gt;" style="edgeStyle=orthogonalEdgeStyle;rounded=0;orthogonalLoop=1;jettySize=auto;html=1;exitX=0;exitY=0.5;exitDx=0;exitDy=0;entryX=1;entryY=0.5;entryDx=0;entryDy=0;" edge="1" parent="1" source="fKZNeTZ5uHSRxG5HBTgB-7" target="fKZNeTZ5uHSRxG5HBTgB-6">
          <mxGeometry relative="1" as="geometry" />
        </mxCell>
        <mxCell id="fKZNeTZ5uHSRxG5HBTgB-12" value="&lt;div&gt;Answers questions with&lt;/div&gt;&lt;div&gt;additional context found&lt;/div&gt;&lt;div&gt;in vector database using&lt;br&gt;&lt;/div&gt;" style="edgeStyle=orthogonalEdgeStyle;rounded=0;orthogonalLoop=1;jettySize=auto;html=1;exitX=1;exitY=0.5;exitDx=0;exitDy=0;entryX=0;entryY=0.5;entryDx=0;entryDy=0;" edge="1" parent="1" source="fKZNeTZ5uHSRxG5HBTgB-7" target="fKZNeTZ5uHSRxG5HBTgB-8">
          <mxGeometry relative="1" as="geometry" />
        </mxCell>
        <mxCell id="fKZNeTZ5uHSRxG5HBTgB-7" value="&lt;div style=&quot;font-size: 18px;&quot;&gt;Chatbot Service&lt;/div&gt;&lt;div&gt;[Software System]&lt;/div&gt;&lt;div&gt;Stores slides and scrapes additional content, creates vector embeddings, creates prompts with context &lt;br&gt;&lt;/div&gt;" style="rounded=0;whiteSpace=wrap;html=1;fillColor=#f5f5f5;fontColor=#333333;strokeColor=#666666;" vertex="1" parent="1">
          <mxGeometry x="340" y="470" width="210" height="100" as="geometry" />
        </mxCell>
        <mxCell id="fKZNeTZ5uHSRxG5HBTgB-8" value="&lt;div style=&quot;font-size: 18px;&quot;&gt;LLM&lt;/div&gt;&lt;div&gt;[Software System]&lt;/div&gt;&lt;div&gt;Answers questions with additional context from lecture slides&lt;br&gt;&lt;/div&gt;" style="rounded=0;whiteSpace=wrap;html=1;fillColor=#f5f5f5;fontColor=#333333;strokeColor=#666666;" vertex="1" parent="1">
          <mxGeometry x="720" y="470" width="210" height="100" as="geometry" />
        </mxCell>
        <mxCell id="fKZNeTZ5uHSRxG5HBTgB-16" value="" style="edgeStyle=orthogonalEdgeStyle;rounded=0;orthogonalLoop=1;jettySize=auto;html=1;exitX=0.5;exitY=1;exitDx=0;exitDy=0;entryX=0.5;entryY=0;entryDx=0;entryDy=0;" edge="1" parent="1" source="fKZNeTZ5uHSRxG5HBTgB-17" target="fKZNeTZ5uHSRxG5HBTgB-19">
          <mxGeometry relative="1" as="geometry" />
        </mxCell>
        <mxCell id="fKZNeTZ5uHSRxG5HBTgB-17" value="&lt;div style=&quot;font-size: 18px;&quot;&gt;Student&lt;/div&gt;&lt;div style=&quot;&quot;&gt;[Person]&lt;br&gt;&lt;/div&gt;&lt;div&gt;A student that wants to understand lecture slides&lt;br&gt;&lt;/div&gt;" style="rounded=1;whiteSpace=wrap;html=1;" vertex="1" parent="1">
          <mxGeometry x="330" y="700" width="230" height="120" as="geometry" />
        </mxCell>
        <mxCell id="fKZNeTZ5uHSRxG5HBTgB-18" value="" style="ellipse;whiteSpace=wrap;html=1;aspect=fixed;" vertex="1" parent="1">
          <mxGeometry x="405" y="620" width="80" height="80" as="geometry" />
        </mxCell>
        <mxCell id="fKZNeTZ5uHSRxG5HBTgB-19" value="&lt;div style=&quot;font-size: 18px;&quot;&gt;Single-Page Application&lt;br&gt;&lt;/div&gt;&lt;div style=&quot;&quot;&gt;&lt;font style=&quot;font-size: 12px;&quot;&gt;[Software System]&lt;br&gt;&lt;/font&gt;&lt;/div&gt;&lt;div style=&quot;&quot;&gt;&lt;font style=&quot;font-size: 12px;&quot;&gt;Allows students to upload lecture slides and ask questions regarding uploaded slides&lt;br&gt;&lt;/font&gt;&lt;/div&gt;" style="rounded=0;whiteSpace=wrap;html=1;fillColor=#dae8fc;strokeColor=#6c8ebf;" vertex="1" parent="1">
          <mxGeometry x="338.75" y="890" width="212.5" height="100" as="geometry" />
        </mxCell>
      </root>
    </mxGraphModel>
  </diagram>
</mxfile>
